<?xml version="1.0" encoding="UTF-8" standalone="no"?>
<!DOCTYPE svg PUBLIC "-//W3C//DTD SVG 1.1//EN"
 "http://www.w3.org/Graphics/SVG/1.1/DTD/svg11.dtd">
<!-- Generated by graphviz version 2.42.3 (20191010.1750)
 -->
<!-- Title: Process flow diagram Pages: 1 -->
<svg width="373pt" height="98pt"
 viewBox="0.00 0.00 373.00 98.00" xmlns="http://www.w3.org/2000/svg" xmlns:xlink="http://www.w3.org/1999/xlink">
<g id="graph0" class="graph" transform="scale(1 1) rotate(0) translate(4 94)">
<title>Process flow diagram</title>
<polygon fill="white" stroke="transparent" points="-4,4 -4,-94 369,-94 369,4 -4,4"/>
<!-- N2 -->
<g id="node1" class="node">
<title>N2</title>
<text text-anchor="middle" x="35.5" y="-68.3" font-family="Times,serif" font-size="14.00">Nitrogen</text>
</g>
<!-- HP -->
<g id="node4" class="node">
<title>HP</title>
<polygon fill="none" stroke="black" points="219,-63 124,-63 124,-27 219,-27 219,-63"/>
<text text-anchor="middle" x="171.5" y="-41.3" font-family="Times,serif" font-size="14.00">Haber Process</text>
</g>
<!-- N2&#45;&gt;HP -->
<g id="edge1" class="edge">
<title>N2&#45;&gt;HP</title>
<path fill="none" stroke="black" d="M68.26,-65.6C81.91,-62.85 98.28,-59.55 113.89,-56.41"/>
<polygon fill="black" stroke="black" points="114.89,-59.78 124,-54.37 113.5,-52.91 114.89,-59.78"/>
<text text-anchor="middle" x="97.5" y="-63.8" font-family="Times,serif" font-size="14.00">N2</text>
</g>
<!-- H2 -->
<g id="node2" class="node">
<title>H2</title>
<text text-anchor="middle" x="35.5" y="-14.3" font-family="Times,serif" font-size="14.00">Hydrogen</text>
</g>
<!-- H2&#45;&gt;HP -->
<g id="edge2" class="edge">
<title>H2&#45;&gt;HP</title>
<path fill="none" stroke="black" d="M71.01,-24.95C84.11,-27.59 99.41,-30.68 114.02,-33.62"/>
<polygon fill="black" stroke="black" points="113.49,-37.08 123.99,-35.63 114.87,-30.22 113.49,-37.08"/>
<text text-anchor="middle" x="97.5" y="-34.8" font-family="Times,serif" font-size="14.00">H2</text>
</g>
<!-- NH3 -->
<g id="node3" class="node">
<title>NH3</title>
<text text-anchor="middle" x="338" y="-41.3" font-family="Times,serif" font-size="14.00">NH3</text>
</g>
<!-- HP&#45;&gt;NH3 -->
<g id="edge3" class="edge">
<title>HP&#45;&gt;NH3</title>
<path fill="none" stroke="black" d="M219.2,-45C245.01,-45 276.62,-45 300.59,-45"/>
<polygon fill="black" stroke="black" points="300.68,-48.5 310.68,-45 300.68,-41.5 300.68,-48.5"/>
<text text-anchor="middle" x="265" y="-48.8" font-family="Times,serif" font-size="14.00">Ammonia</text>
</g>
</g>
</svg>
