<?xml version="1.0" encoding="UTF-8" standalone="no"?>
<!DOCTYPE svg PUBLIC "-//W3C//DTD SVG 1.1//EN"
 "http://www.w3.org/Graphics/SVG/1.1/DTD/svg11.dtd">
<!-- Generated by graphviz version 2.38.0 (20140413.2041)
 -->
<!-- Title: Process flow diagram Pages: 1 -->
<svg width="377pt" height="98pt"
 viewBox="0.00 0.00 377.00 98.00" xmlns="http://www.w3.org/2000/svg" xmlns:xlink="http://www.w3.org/1999/xlink">
<g id="graph0" class="graph" transform="scale(1 1) rotate(0) translate(4 94)">
<title>Process flow diagram</title>
<polygon fill="white" stroke="none" points="-4,4 -4,-94 373,-94 373,4 -4,4"/>
<!-- N2 -->
<g id="node1" class="node"><title>N2</title>
<text text-anchor="middle" x="36" y="-68.3" font-family="Times New Roman,serif" font-size="14.00">Nitrogen</text>
</g>
<!-- HP -->
<g id="node4" class="node"><title>HP</title>
<polygon fill="none" stroke="black" points="224,-63 125,-63 125,-27 224,-27 224,-63"/>
<text text-anchor="middle" x="174.5" y="-41.3" font-family="Times New Roman,serif" font-size="14.00">Haber Process</text>
</g>
<!-- N2&#45;&gt;HP -->
<g id="edge1" class="edge"><title>N2&#45;&gt;HP</title>
<path fill="none" stroke="black" d="M68.6589,-65.7378C82.3552,-63.0286 98.8428,-59.7674 114.645,-56.6416"/>
<polygon fill="black" stroke="black" points="115.764,-59.9882 124.895,-54.6142 114.406,-53.1213 115.764,-59.9882"/>
<text text-anchor="middle" x="98.5" y="-63.8" font-family="Times New Roman,serif" font-size="14.00">N2</text>
</g>
<!-- H2 -->
<g id="node2" class="node"><title>H2</title>
<text text-anchor="middle" x="36" y="-14.3" font-family="Times New Roman,serif" font-size="14.00">Hydrogen</text>
</g>
<!-- H2&#45;&gt;HP -->
<g id="edge2" class="edge"><title>H2&#45;&gt;HP</title>
<path fill="none" stroke="black" d="M72.1521,-24.9532C85.1809,-27.5303 100.333,-30.5274 114.888,-33.4064"/>
<polygon fill="black" stroke="black" points="114.347,-36.8671 124.836,-35.3742 115.705,-30.0002 114.347,-36.8671"/>
<text text-anchor="middle" x="98.5" y="-34.8" font-family="Times New Roman,serif" font-size="14.00">H2</text>
</g>
<!-- NH3 -->
<g id="node3" class="node"><title>NH3</title>
<text text-anchor="middle" x="342" y="-41.3" font-family="Times New Roman,serif" font-size="14.00">NH3</text>
</g>
<!-- HP&#45;&gt;NH3 -->
<g id="edge3" class="edge"><title>HP&#45;&gt;NH3</title>
<path fill="none" stroke="black" d="M224.26,-45C249.893,-45 280.791,-45 304.36,-45"/>
<polygon fill="black" stroke="black" points="304.627,-48.5001 314.627,-45 304.627,-41.5001 304.627,-48.5001"/>
<text text-anchor="middle" x="269.5" y="-48.8" font-family="Times New Roman,serif" font-size="14.00">Ammonia</text>
</g>
</g>
</svg>
