<?xml version="1.0" encoding="UTF-8" standalone="no"?>
<!DOCTYPE svg PUBLIC "-//W3C//DTD SVG 1.1//EN"
 "http://www.w3.org/Graphics/SVG/1.1/DTD/svg11.dtd">
<!-- Generated by graphviz version 2.38.0 (20140413.2041)
 -->
<!-- Title: Process flow diagram Pages: 1 -->
<svg width="639pt" height="98pt"
 viewBox="0.00 0.00 639.00 98.00" xmlns="http://www.w3.org/2000/svg" xmlns:xlink="http://www.w3.org/1999/xlink">
<g id="graph0" class="graph" transform="scale(1 1) rotate(0) translate(4 94)">
<title>Process flow diagram</title>
<polygon fill="white" stroke="none" points="-4,4 -4,-94 635,-94 635,4 -4,4"/>
<!-- N2 -->
<g id="node1" class="node"><title>N2</title>
<text text-anchor="middle" x="298" y="-14.3" font-family="Times New Roman,serif" font-size="14.00">Nitrogen</text>
</g>
<!-- HP -->
<g id="node6" class="node"><title>HP</title>
<polygon fill="none" stroke="black" points="486,-65 387,-65 387,-29 486,-29 486,-65"/>
<text text-anchor="middle" x="436.5" y="-43.3" font-family="Times New Roman,serif" font-size="14.00">Haber Process</text>
</g>
<!-- N2&#45;&gt;HP -->
<g id="edge1" class="edge"><title>N2&#45;&gt;HP</title>
<path fill="none" stroke="black" d="M330.659,-24.7261C344.486,-27.6636 361.157,-31.2055 377.097,-34.592"/>
<polygon fill="black" stroke="black" points="376.386,-38.0189 386.895,-36.6736 377.84,-31.1718 376.386,-38.0189"/>
<text text-anchor="middle" x="360.5" y="-35.8" font-family="Times New Roman,serif" font-size="14.00">N2</text>
</g>
<!-- H2 -->
<g id="node2" class="node"><title>H2</title>
<text text-anchor="middle" x="298" y="-68.3" font-family="Times New Roman,serif" font-size="14.00">Hydrogen</text>
</g>
<!-- H2&#45;&gt;HP -->
<g id="edge2" class="edge"><title>H2&#45;&gt;HP</title>
<path fill="none" stroke="black" d="M334.152,-65.5619C347.181,-63.1757 362.333,-60.4006 376.888,-57.7348"/>
<polygon fill="black" stroke="black" points="377.63,-61.1572 386.836,-55.9128 376.369,-54.2717 377.63,-61.1572"/>
<text text-anchor="middle" x="360.5" y="-64.8" font-family="Times New Roman,serif" font-size="14.00">H2</text>
</g>
<!-- Air -->
<g id="node3" class="node"><title>Air</title>
<text text-anchor="middle" x="27" y="-14.3" font-family="Times New Roman,serif" font-size="14.00">Air</text>
</g>
<!-- CD -->
<g id="node7" class="node"><title>CD</title>
<polygon fill="none" stroke="black" points="225,-36 91,-36 91,-0 225,-0 225,-36"/>
<text text-anchor="middle" x="158" y="-14.3" font-family="Times New Roman,serif" font-size="14.00">Cryogenic distillation</text>
</g>
<!-- Air&#45;&gt;CD -->
<g id="edge4" class="edge"><title>Air&#45;&gt;CD</title>
<path fill="none" stroke="black" d="M54.1051,-18C62.0826,-18 71.2923,-18 80.8551,-18"/>
<polygon fill="black" stroke="black" points="80.9117,-21.5001 90.9117,-18 80.9116,-14.5001 80.9117,-21.5001"/>
</g>
<!-- NH3 -->
<g id="node4" class="node"><title>NH3</title>
<text text-anchor="middle" x="604" y="-43.3" font-family="Times New Roman,serif" font-size="14.00">NH3</text>
</g>
<!-- Water -->
<g id="node5" class="node"><title>Water</title>
<text text-anchor="middle" x="27" y="-68.3" font-family="Times New Roman,serif" font-size="14.00">Water</text>
</g>
<!-- Electrolysis -->
<g id="node8" class="node"><title>Electrolysis</title>
<polygon fill="none" stroke="black" points="198.5,-90 117.5,-90 117.5,-54 198.5,-54 198.5,-90"/>
<text text-anchor="middle" x="158" y="-68.3" font-family="Times New Roman,serif" font-size="14.00">Electrolysis</text>
</g>
<!-- Water&#45;&gt;Electrolysis -->
<g id="edge6" class="edge"><title>Water&#45;&gt;Electrolysis</title>
<path fill="none" stroke="black" d="M54.1051,-72C69.3772,-72 89.1647,-72 107.302,-72"/>
<polygon fill="black" stroke="black" points="107.455,-75.5001 117.455,-72 107.455,-68.5001 107.455,-75.5001"/>
</g>
<!-- HP&#45;&gt;NH3 -->
<g id="edge3" class="edge"><title>HP&#45;&gt;NH3</title>
<path fill="none" stroke="black" d="M486.26,-47C511.893,-47 542.791,-47 566.36,-47"/>
<polygon fill="black" stroke="black" points="566.627,-50.5001 576.627,-47 566.627,-43.5001 566.627,-50.5001"/>
<text text-anchor="middle" x="531.5" y="-50.8" font-family="Times New Roman,serif" font-size="14.00">Ammonia</text>
</g>
<!-- CD&#45;&gt;N2 -->
<g id="edge5" class="edge"><title>CD&#45;&gt;N2</title>
<path fill="none" stroke="black" d="M225.171,-18C235.323,-18 245.557,-18 254.992,-18"/>
<polygon fill="black" stroke="black" points="255.258,-21.5001 265.257,-18 255.257,-14.5001 255.258,-21.5001"/>
</g>
<!-- Electrolysis&#45;&gt;H2 -->
<g id="edge7" class="edge"><title>Electrolysis&#45;&gt;H2</title>
<path fill="none" stroke="black" d="M198.545,-72C215.034,-72 234.286,-72 251.371,-72"/>
<polygon fill="black" stroke="black" points="251.684,-75.5001 261.684,-72 251.684,-68.5001 251.684,-75.5001"/>
</g>
</g>
</svg>
