<?xml version='1.0' encoding='utf-8'?>
<svg xmlns="http://www.w3.org/2000/svg" id="Layer_1" data-name="Layer 1" viewBox="0 0 401 950"><defs><style>.cls-1{fill:#999;}.cls-2{fill:#ccc;}.cls-3{fill:#333;}.cls-4{fill:#e6e6e6;}.cls-5{fill:#29abe2;}.cls-6{fill:#0071bc;}.cls-7{fill:#ff0;}.cls-8{fill:#fbb03b;}.cls-9{fill:#ed1c24;}.cls-10{fill:#3fa9f5;}.cls-11{fill:#1b1464;}</style></defs><title>Fridge</title><path class="cls-1" d="M794.5,1075h-390V150a25,25,0,0,1,25-25h340a25,25,0,0,1,25,25Z" transform="translate(-399.5 -125)"/><path class="cls-2" d="M800.5,425h-400V150a25,25,0,0,1,25-25h350a25,25,0,0,1,25,25Z" transform="translate(-399.5 -125)"/><rect class="cls-2" y="310" width="400" height="600"/><rect class="cls-3" x="150" y="920" width="100" height="10" rx="5" ry="5"/><rect class="cls-3" x="30" y="920" width="100" height="10" rx="5" ry="5"/><rect class="cls-3" x="270" y="920" width="100" height="10" rx="5" ry="5"/><rect class="cls-1" x="20" y="50" width="20" height="200" rx="5" ry="5"/><rect class="cls-1" x="20" y="370" width="20" height="400" rx="5" ry="5"/><rect class="cls-4" x="530.89" y="188.36" width="60" height="110" transform="translate(-225.48 591.81) rotate(-74.2)"/><rect class="cls-5" x="535.89" y="193.36" width="50" height="100" transform="translate(-225.48 591.81) rotate(-74.2)"/><rect class="cls-6" x="544.99" y="205.39" width="25" height="100" transform="translate(-239.53 597.29) rotate(-74.2)"/><circle class="cls-7" cx="564.78" cy="231.47" r="7.5" transform="translate(-211.21 586.89) rotate(-74.2)"/><rect class="cls-8" x="549.36" y="211.16" width="13" height="100" transform="translate(-246.27 599.92) rotate(-74.2)"/><circle class="cls-9" cx="608.68" cy="236.1" r="15" transform="translate(-183.72 632.5) rotate(-74.2)"/><rect class="cls-10" x="659.57" y="240.15" width="70" height="70" transform="translate(-451.97 142.04) rotate(-20.99)"/><path d="M717.33,264.29l-46.68,17.91c-1.78.68-1,3.59.8,2.89l46.68-17.91c1.78-.68,1-3.59-.8-2.89Z" transform="translate(-399.5 -125)"/><path d="M713.75,254.95l-46.68,17.91c-1.78.68-1,3.59.8,2.89l46.68-17.91c1.78-.68,1-3.59-.8-2.89Z" transform="translate(-399.5 -125)"/><path d="M710.17,245.61l-46.68,17.91c-1.78.68-1,3.59.8,2.89L711,248.51c1.78-.68,1-3.59-.8-2.89Z" transform="translate(-399.5 -125)"/><path d="M720.92,273.62l-46.68,17.91c-1.78.68-1,3.59.8,2.89l46.68-17.91c1.78-.68,1-3.59-.8-2.89Z" transform="translate(-399.5 -125)"/><path d="M724.5,283l-46.68,17.91c-1.78.68-1,3.59.8,2.89l46.68-17.91c1.78-.68,1-3.59-.8-2.89Z" transform="translate(-399.5 -125)"/><circle class="cls-11" cx="649.54" cy="255.02" r="15" transform="translate(-419.9 -65.2) rotate(-5.19)"/></svg>