<?xml version="1.0" encoding="UTF-8"?>
<svg viewBox="0 0 635.09003 1078.36" xmlns="http://www.w3.org/2000/svg">
 <defs>
  <clipPath id="a">
   <path d="m0 841.89h595.28v-841.89h-595.28v841.89z"/>
  </clipPath>
 </defs>
 <g transform="matrix(1.25 0 0 -1.25 100.35 1057.8)" clip-path="url(#a)">
  <g transform="matrix(1.2576 0 0 1.2576 13.563 822.67)">
   <path d="m0,0c-5.236-2.408-8.065-4.273-13.001-7.223-5.657-3.431-12.278-5.357-12.278-12.038 0-7.042 9.81-6.741 16.853-6.741-3.431-2.046-5.357-3.371-8.908-5.056-3.371-1.625-7.705-2.107-7.705-5.899 0-3.009 2.89-4.092 2.89-7.102 0-2.528-1.927-3.732-1.927-6.259 0-3.07 1.805-5.297 4.575-6.501-.903-.181-1.445-.421-2.167-.963 4.694,3.912 4.093,8.848 6.981,14.205 2.468,4.574 4.635,6.801 8.427,10.593-1.504-2.046-2.287-3.31-3.611-5.537 1.505-.061 2.287-.241 3.792-.241 2.648,0 6.32-.241 6.32,2.408l-6.741,16.852c2.468,0 3.912.181 6.26.963-.723,1.084-1.445,1.625-1.445,2.89 0,2.407 2.95,2.407 4.816,3.852 2.407,1.865 1.926,4.634 1.926,7.704 0,3.431-3.431,4.875-6.742,5.778 0-1.324.602-2.648 1.926-2.889l-.241,1.204z" fill="#fff" fill-rule="evenodd"/>
  </g>
  <g transform="matrix(1.2576 0 0 1.2576 -10.81 746.68)">
   <path d="m0,0c0-2.107-1.686-3.07-1.686-5.176 0-.422.061-.963.482-.963 1.354,0 2.167,1.414 2.167,2.768 0,.632-.482.963-.482,1.595v1.897l-.481-.121z" fill="#fff" fill-rule="evenodd"/>
  </g>
  <g transform="matrix(1.2576 0 0 1.2576 -11.87 734.41)">
   <path d="m0,0-.723-1.926v-1.084c.302-.06.422-.24.723-.24 .602,0 .963.602.963,1.203 0,1.054-.451,1.625-.963,2.528v-.481z" fill="#fff" fill-rule="evenodd"/>
  </g>
  <g transform="matrix(3.9169 0 0 3.9169 10.394 158.09)">
   <path d="m0,0c0,0-3.894.607-2.92-2.313s4.745-3.649 5.719-3.892 5.84.243 6.204.973 3.042,1.703 3.042,1.703 10.099-5.596 12.774-8.03c2.677-2.433 6.205-5.839 6.936-5.839s-6.205-.245-6.448-2.556 .851-6.814 4.014-7.179c3.163-.365 5.232-.121 6.814,1.339s5.353,2.555 7.178,1.825 4.501-2.555 4.501-2.555 13.749,0 18.737,1.094c4.988,1.096 12.166,1.339 13.87,2.191s3.284,1.825 3.528,11.193-.608,138.217-.608,141.866-.122,17.4-2.069,19.954c-1.946,2.556-2.919,3.164-2.919,4.502s1.46,2.92-2.312,2.92-4.745.243-7.544,1.339-8.881,2.676-10.341,2.92-4.502,2.068-6.205,2.312-8.394,1.46-8.394,1.46-6.328,1.095-6.328,1.703 .244,1.216.244,1.216-34.067,0-35.77-5.96-1.703-154.399-.608-156.832c1.095-2.434.973-3.651.973-3.651l-2.068-1.703z" fill="#deddde" fill-rule="evenodd"/>
  </g>
  <g transform="matrix(3.9169 0 0 3.9169 253.91 686.12)">
   <path d="m0 0-1.946-12.653s-7.787-10.221-4.137-29.445 12.896-15.331 16.303-15.087 8.273 10.22 9.247 21.414-2.921 18.981-4.38 25.55-4.381 11.437-4.381 11.437l-10.706-1.216z" fill="#fff" fill-rule="evenodd"/>
  </g>
  <g transform="matrix(3.9169 0 0 3.9169 334.45 109.48)">
   <path d="m0,0c0,0 3.041.364 4.502-.487s5.475-3.65 5.475-4.867 .608-2.677-1.339-3.164-6.204-1.337-7.421-.243-1.217,8.761-1.217,8.761" fill="#deddde" fill-rule="evenodd"/>
  </g>
  <g transform="matrix(3.9169 0 0 3.9169 347.32 67.059)">
   <path d="m0,0v-2.555c0,0-2.92,0-2.92-3.772s1.824-7.3 2.676-7.422 4.259,1.461 4.502,2.068 1.46-.851 2.555-.242 3.277,1.473 2.859,5.11c-.426,3.71-.669,5.11-2.615,5.11s-3.408-.122-3.408-.122l-.973,1.825v4.988c0,0-1.581-.973-2.433-.243s-1.095.731-1.095.731l.852-5.476z" fill="#231f20" fill-rule="evenodd"/>
  </g>
  <g transform="matrix(3.9169 0 0 3.9169 351.61 94.221)">
   <path d="m0,0c-1.034-.304-2.068-.668-1.643-1.398s1.886-1.278 2.617-.852 .547,1.034.547,1.034l-2.312-.243 1.765.791c0,0 .06.973-.974.668" fill="#231f20" fill-rule="evenodd"/>
  </g>
  <g transform="matrix(3.9169 0 0 3.9169 355.66 54.669)">
   <path d="m0,0c0,0 .973-.486 1.46-3.346s.426-4.806.426-4.806l.851-.244c0,0 .487,2.677-.303,5.658-.653,2.457-1.522,3.407-1.522,3.407l-1.277-.183 .365-.486z" fill="#918f90" fill-rule="evenodd"/>
  </g>
  <g transform="matrix(3.9169 0 0 3.9169 290.13 540.29)">
   <path d="m0,0c-1.704-.243-7.057-1.459-6.327-5.597s6.083-6.813 7.543-5.596 5.353,4.623 4.137,6.57-3.65,4.867-5.353,4.623" fill="#fff" fill-rule="evenodd"/>
  </g>
  <g transform="matrix(3.9169 0 0 3.9169 290.13 540.29)">
   <path d="m0,0c-1.704-.243-7.057-1.459-6.327-5.597s6.083-6.813 7.543-5.596 5.353,4.623 4.137,6.57-3.65,4.867-5.353,4.623z" fill="none" stroke="#231f20" stroke-miterlimit="3.864" stroke-width=".973"/>
  </g>
  <g transform="matrix(3.9169 0 0 3.9169 316.82 761.42)">
   <path d="m0,0c1.217,1.46-.973,3.406-.973,3.406s-39.663.488-41.123-5.596-1.947-169.364-.973-172.527 7.543-2.433 7.543-2.433 2.433-1.704 5.596-3.408 30.173,3.163 34.067,4.137 1.217,160.604.486,165.714-1.946,8.273-6.569,11.193-8.274,1.703-8.274,1.703l-27.739-4.136" fill="none" stroke="#231f20" stroke-miterlimit="3.864" stroke-width=".973"/>
  </g>
  <g transform="matrix(3.9169 0 0 3.9169 225.32 700.42)">
   <path d="m0,0c2.434-2.434 4.866-1.946 13.383-1.459s11.193,3.406 10.95,5.353-5.84,2.19-13.87.973-12.897-2.433-10.463-4.867" fill="#fff" fill-rule="evenodd"/>
  </g>
  <g transform="matrix(3.9169 0 0 3.9169 225.32 700.42)">
   <path d="m0,0c2.434-2.434 4.866-1.946 13.383-1.459s11.193,3.406 10.95,5.353-5.84,2.19-13.87.973-12.897-2.433-10.463-4.867z" fill="none" stroke="#231f20" stroke-miterlimit="3.864" stroke-width=".973"/>
  </g>
  <g transform="matrix(3.9169 0 0 3.9169 272.97 526)">
   <path d="m0,0c.487-1.947 4.624-4.38 5.597-4.867s2.92.487 2.92.487l-7.057,5.596c0,0-1.946.73-1.46-1.216" fill="#231f20" fill-rule="evenodd"/>
  </g>
  <g transform="matrix(3.9169 0 0 3.9169 260.58 608.44)">
   <path d="m0 0 2.677-10.342 8.456 1.887-1.46 9.976-9.673-1.521z" fill="#fff" fill-rule="evenodd"/>
  </g>
  <g transform="matrix(3.9169 0 0 3.9169 260.58 608.44)">
   <path d="m0 0 2.677-10.342 8.456 1.887-1.46 9.976-9.673-1.521z" fill="none" stroke="#231f20" stroke-miterlimit="3.864" stroke-width=".973"/>
  </g>
  <g transform="matrix(3.9169 0 0 3.9169 283.46 607.01)">
   <path d="m0,0 .243-4.38 1.096-2.373-2.677-.426-.73,2.677-.609,4.259 2.677.243z" fill="none" stroke="#231f20" stroke-miterlimit="3.864" stroke-width=".973"/>
  </g>
  <g transform="matrix(3.9169 0 0 3.9169 289.42 579.37)">
   <path d="m0,0-1.339-1.643-2.189-.182-.183,2.92-1.947,3.893 .913,2.312 2.007-7.543 2.738.243z" fill="#231f20" fill-rule="evenodd"/>
  </g>
  <g transform="matrix(3.9169 0 0 3.9169 303 611.3)">
   <path d="m0,0v-3.406l1.339-3.346-2.677-.426-.851,3.772-.852,3.345 3.041.061z" fill="#fff" fill-rule="evenodd"/>
  </g>
  <g transform="matrix(3.9169 0 0 3.9169 303 611.3)">
   <path d="m0,0v-3.406l1.339-3.346-2.677-.426-.851,3.772-.852,3.345 3.041.061z" fill="none" stroke="#231f20" stroke-miterlimit="3.864" stroke-width=".973"/>
  </g>
  <g transform="matrix(3.9169 0 0 3.9169 308.24 584.38)">
   <path d="m0,0-1.339-1.643-2.189-.182-.609,3.65-.973,2.677 .365,2.677 2.007-7.422 2.738.243z" fill="#231f20" fill-rule="evenodd"/>
  </g>
  <g transform="matrix(3.9169 0 0 3.9169 271.07 785.25)">
   <path d="m0,0c-12.494.734-35.406-3.251-36.743-6.814-2.19-5.84-1.46-165.47-.73-168.147s4.867-2.677 4.867-2.677-1.46,0-1.704,4.137-.729,160.36-.729,163.036 6.569,5.598 10.22,5.598 27.009,3.163 27.009,3.163 1.947,1.46-2.19,1.704" fill="#231f20" fill-rule="evenodd"/>
  </g>
  <g transform="matrix(3.9169 0 0 3.9169 241.52 794.3)">
   <path d="m0,0c-12.495.735-35.407-3.25-36.743-6.813-2.19-5.84-2.19-161.333-1.46-164.01s5.84-3.529 5.84-3.529-2.069-.608-2.312,3.529-.365,157.683-.365,160.36 6.57,5.597 10.22,5.597 27.009,3.163 27.009,3.163 1.948,1.461-2.189,1.703" fill="#231f20" fill-rule="evenodd"/>
  </g>
  <g transform="matrix(3.9169 0 0 3.9169 211.98 803.36)">
   <path d="m0 0c-12.495 0.734-35.407-3.251-36.743-6.813-2.191-5.841-1.46-159.39-0.731-162.06s4.38-4.137 4.38-4.137-1.217 1.217-1.46 5.354-0.486 154.52-0.486 157.2 6.57 5.597 10.22 5.597 27.009 3.164 27.009 3.164 1.947 1.459-2.189 1.703" fill="#231f20" fill-rule="evenodd"/>
  </g>
  <g transform="matrix(3.9169 0 0 3.9169 176.71 808.6)">
   <path d="m0,0c-12.494.735-33.703-3.494-35.039-7.057-2.19-5.839-1.582-156.832-.852-159.508s4.137-3.285 4.137-3.285-1.217,3.407-1.339,4.745c-.375,4.126-.243,151.722-.243,154.398s6.57,5.598 10.22,5.598 24.819,4.257 24.819,4.257 2.434.609-1.703.852" fill="#231f20" fill-rule="evenodd"/>
  </g>
  <g transform="matrix(3.9169 0 0 3.9169 148.6 817.66)">
   <path d="m0 0c-12.473-1.04-34.313-2.277-35.648-5.841-2.19-5.84-0.73-157.2 0-159.87s6.448-1.581 6.448-1.581-3.406-0.122-3.65 4.015-1.095 151.11-1.095 153.79 6.57 5.595 10.22 5.595 26.523 2.191 26.523 2.191-1.338 1.825-2.798 1.704" fill="#231f20" fill-rule="evenodd"/>
  </g>
  <g transform="matrix(3.9169 0 0 3.9169 171.94 734.73)">
   <path d="m0,0c0-2.92 4.639-84.155 4.867-101.959 .243-18.98-1.217-66.188.73-69.108s8.03-1.704 10.219-1.704-7.543,5.597-8.029,13.871 1.46,46.963 1.217,67.161-1.947,72.271-4.623,81.761-4.381,12.898-4.381,9.978" fill="#bab6a7" fill-rule="evenodd"/>
  </g>
  <g transform="matrix(3.9169 0 0 3.9169 22.784 129.01)">
   <path d="m0,0v-2.555c0,0-2.92,0-2.92-3.772s1.825-7.3 2.677-7.422 4.259,1.46 4.502,2.068 1.46-.851 2.554-.243c1.095.609 3.407.852 2.434,4.38s-.243,5.841-2.19,5.841-3.407-.122-3.407-.122l-.973,1.825v4.988c0,0-1.581-.973-2.434-.243s-1.095.73-1.095.73l.852-5.475z" fill="#231f20" fill-rule="evenodd"/>
  </g>
  <g transform="matrix(3.9169 0 0 3.9169 26.835 155.94)">
   <path d="m0,0c-1.034-.304-2.068-.669-1.643-1.399s1.887-1.278 2.617-.852 .547,1.034.547,1.034l-2.312-.243 1.765.791c0,0 .06.973-.974.669" fill="#231f20" fill-rule="evenodd"/>
  </g>
  <g transform="matrix(3.9169 0 0 3.9169 23.262 162.85)">
   <path d="m0 0c0.729 0-6.936-0.852-7.179-2.313s0.366-3.406 0.366-3.406 4.258-2.554 6.205-2.92c1.946-0.365 6.326 0.852 6.569 1.825s0.244 2.798 0.244 2.798-1.339-2.311-4.623-2.433-6.327 1.095-6.692 2.677 4.38 3.772 5.11 3.772" fill="#bab6a7" fill-rule="evenodd"/>
  </g>
  <g transform="matrix(3.9169 0 0 3.9169 130.01 42.276)">
   <path d="m0,0v-2.555c0,0-2.92,0-2.92-3.771s1.825-7.301 2.677-7.422 4.258,1.46 4.501,2.068 1.46-.851 2.555-.244 3.277,1.475 2.859,5.111c-.426,3.711-.669,5.11-2.615,5.11s-3.408-.121-3.408-.121l-.972,1.824v4.988c0,0-1.582-.972-2.434-.242s-1.095.73-1.095.73l.852-5.476z" fill="#231f20" fill-rule="evenodd"/>
  </g>
  <g transform="matrix(3.9169 0 0 3.9169 134.3 69.442)">
   <path d="m0,0c-1.034-.305-2.068-.669-1.643-1.399s1.886-1.278 2.617-.852 .547,1.034.547,1.034l-2.312-.243 1.765.791c0,0 .06.974-.974.669" fill="#231f20" fill-rule="evenodd"/>
  </g>
  <g transform="matrix(3.9169 0 0 3.9169 138.35 29.886)">
   <path d="m0,0c0,0 .974-.486 1.46-3.346s.426-4.805.426-4.805l.851-.245c0,0 .488,2.678-.303,5.659-.653,2.457-1.521,3.406-1.521,3.406l-1.278-.182 .365-.487z" fill="#918f90" fill-rule="evenodd"/>
  </g>
  <g transform="matrix(3.9169 0 0 3.9169 130.01 84.693)">
   <path d="m0 0c0.729 0-6.935 0.122-7.179-1.339s-0.607-3.406-0.607-3.406 5.84-4.867 7.786-5.233c1.946-0.364 6.205 0.61 6.448 1.582s0 2.92 0 2.92-1.825-2.433-5.11-2.554c-3.284-0.121-6.083 2.676-6.448 4.258s4.38 3.772 5.11 3.772" fill="#bab6a7" fill-rule="evenodd"/>
  </g>
  <g transform="matrix(3.9169 0 0 3.9169 30.17 116.15)">
   <path d="m0,0c0,0 .974-.486 1.46-3.346s.427-4.806.427-4.806l.851-.244c0,0 .487,2.677-.304,5.658-.653,2.457-1.521,3.407-1.521,3.407l-1.277-.183 .364-.486z" fill="#918f90" fill-rule="evenodd"/>
  </g>
  <g transform="matrix(3.9169 0 0 3.9169 335.88 72.303)">
   <path d="m0,0c0,0 2.433-2.068 4.623-1.461s4.623,1.096 5.718,2.313c1.096,1.216 2.19,4.136-.609,5.961s-9.489,2.677-9.489,2.677 9.368-3.164 9.368-4.988c0-1.826.121-2.556-1.825-3.043s-6.813-.607-7.3,0-.486-1.459-.486-1.459" fill="#bab6a7" fill-rule="evenodd"/>
  </g>
  <g transform="matrix(3.9169 0 0 3.9169 234.85 382.07)">
   <path d="m0 0c-0.974-4.138-0.244-25.551-0.244-28.228s4.137-4.623 4.137-4.623l16.06 2.92s2.19 36.014-0.974 36.744-14.842 2.19-15.33-1.46 0-33.824 0-33.824l-0.973 35.284s-1.703-2.676-2.676-6.813" fill="#fff" fill-rule="evenodd"/>
  </g>
  <g transform="matrix(3.9169 0 0 3.9169 272.61 375.74)">
   <path d="m0,0 3.836,1.758 2.877-2.398-.32-3.996-2.717-1.597-3.357,1.918-.319,4.315z" fill="#ed1c24" fill-rule="evenodd"/>
  </g>
  <g transform="matrix(3.9169 0 0 3.9169 269.16 362.28)">
   <path d="m0,0 .799,3.437 .559-4.476 3.357-1.598 2.397,1.598c0,0 .48,4.076.559,3.756s-.239-5.194-.239-5.194l-2.398-1.838-4.315,1.758-.719,2.557z" fill="#f3b90b" fill-rule="evenodd"/>
  </g>
  <g transform="matrix(3.9169 0 0 3.9169 269.16 322.98)">
   <path d="m0,0 .243-4.381 1.095-2.372-2.677-.426-.912,2.738-.426,4.197 2.677.244z" fill="none" stroke="#231f20" stroke-miterlimit="3.864" stroke-width=".973"/>
  </g>
  <g transform="matrix(3.9169 0 0 3.9169 276.55 295.1)">
   <path d="m0,0-1.034-1.46-2.86-.305-1.946,6.389 .73,2.737 2.007-7.544 3.103.183z" fill="#231f20" fill-rule="evenodd"/>
  </g>
  <g transform="matrix(3.9169 0 0 3.9169 296.8 322.98)">
   <path d="m0,0 .243-4.381 1.095-2.372-2.677-.426-.912,2.494-.426,4.441 2.677.244z" fill="none" stroke="#231f20" stroke-miterlimit="3.864" stroke-width=".973"/>
  </g>
  <g transform="matrix(3.9169 0 0 3.9169 304.19 294.86)">
   <path d="m0,0-1.156-1.339-2.738-.365-1.825,5.841 .669,3.163 1.947-7.422 3.103.122z" fill="#231f20" fill-rule="evenodd"/>
  </g>
  <g transform="matrix(3.9169 0 0 3.9169 228.18 710.43)">
   <path d="m0 0s4.502-2.19 7.787-2.19 10.706 1.338 13.019 2.554 2.675 1.461 2.675 1.461 0.852-3.164-3.041-4.502-11.801-1.703-15.086-1.703-6.327 0.73-6.449 1.946 1.095 2.434 1.095 2.434" fill="#231f20" fill-rule="evenodd"/>
  </g>
  <g transform="matrix(3.9169 0 0 3.9169 280.36 539.1)">
   <path d="m0,0c2.189.486-6.753-1.277-6.267-5.05 .257-1.99 1.704-5.109 3.408-6.326s6.022-.061 6.022-.061-7.726,3.286-7.239,5.658 1.886,5.292 4.076,5.779" fill="#231f20" fill-rule="evenodd"/>
  </g>
 </g>
</svg>
