<?xml version="1.0" encoding="UTF-8"?>
<svg viewBox="0 0 1222 1200" xmlns="http://www.w3.org/2000/svg" xmlns:xlink="http://www.w3.org/1999/xlink">
 <defs>
  <filter id="g">
   <feGaussianBlur stdDeviation="3.428"/>
  </filter>
  <linearGradient id="c">
   <stop stop-color="#2b1100" offset="0"/>
   <stop stop-color="#a40" offset="1"/>
  </linearGradient>
  <linearGradient id="e">
   <stop stop-color="#241c1c" offset="0"/>
   <stop stop-color="#a40" offset="1"/>
  </linearGradient>
  <linearGradient id="a">
   <stop stop-color="#f00" offset="0"/>
   <stop stop-color="#2b0000" offset="1"/>
  </linearGradient>
  <linearGradient id="b">
   <stop stop-color="#2b1100" offset="0"/>
   <stop stop-color="#803300" offset="1"/>
  </linearGradient>
  <linearGradient id="av" x1="1114.4" x2="1043.5" y1="713.96" y2="736.69" gradientUnits="userSpaceOnUse">
   <stop stop-color="#fff" offset="0"/>
   <stop stop-color="#fff" stop-opacity="0" offset="1"/>
  </linearGradient>
  <linearGradient id="au" x1="929.28" x2="1017.1" gradientUnits="userSpaceOnUse">
   <stop offset="0"/>
   <stop stop-color="#800000" offset="1"/>
  </linearGradient>
  <linearGradient id="d" x1="662.97" x2="1282.5" y1="462.86" y2="903.28" gradientUnits="userSpaceOnUse">
   <stop stop-color="#ccc" offset="0"/>
   <stop stop-color="#fff" offset="1"/>
  </linearGradient>
  <linearGradient id="at" x1="529.26" x2="759.52" y1="627.78" y2="953.02" gradientUnits="userSpaceOnUse">
   <stop stop-color="#666" offset="0"/>
   <stop stop-color="#fff" offset="1"/>
  </linearGradient>
  <linearGradient id="as" x1="964.86" x2="1285.9" gradientUnits="userSpaceOnUse">
   <stop stop-color="#917c6f" offset="0"/>
   <stop stop-color="#483e37" offset="1"/>
  </linearGradient>
  <linearGradient id="ar" x1="670.18" x2="661.79" y1="867.18" y2="897.72" gradientUnits="userSpaceOnUse">
   <stop stop-color="#6c5d53" offset="0"/>
   <stop stop-color="#241f1c" offset="1"/>
  </linearGradient>
  <linearGradient id="aq" x1="498.67" x2="1452.7" y1="857.9" y2="960.93" gradientUnits="userSpaceOnUse">
   <stop stop-color="#22280b" offset="0"/>
   <stop stop-color="#449305" offset=".25"/>
   <stop stop-color="#6f0" offset=".5"/>
   <stop stop-color="#22280b" offset="1"/>
  </linearGradient>
  <linearGradient id="ap" x1="782.97" x2="951.64" gradientUnits="userSpaceOnUse">
   <stop stop-color="#520" offset="0"/>
   <stop stop-color="#520" stop-opacity="0" offset="1"/>
  </linearGradient>
  <linearGradient id="ao" x1="522.03" x2="1169.8" y1="774.99" y2="1181.1" gradientUnits="userSpaceOnUse">
   <stop stop-color="#6f0" offset="0"/>
   <stop stop-color="#22280b" offset=".4366"/>
   <stop stop-color="#55d400" offset="1"/>
  </linearGradient>
  <linearGradient id="an" x1="561.29" x2="630.14" gradientUnits="userSpaceOnUse">
   <stop stop-color="#d40000" offset="0"/>
   <stop stop-color="#500" offset="1"/>
  </linearGradient>
  <linearGradient id="am" x1="612.57" x2="744.27" gradientUnits="userSpaceOnUse">
   <stop stop-color="#f00" offset="0"/>
   <stop stop-color="#800000" offset="1"/>
  </linearGradient>
  <linearGradient id="aj" x1="838.5" x2="908.64" gradientUnits="userSpaceOnUse">
   <stop stop-color="#2b1100" offset="0"/>
   <stop stop-color="#2b1100" offset="1"/>
  </linearGradient>
  <linearGradient id="r" x1="810.21" x2="825" y1="801.64" y2="870.5" gradientUnits="userSpaceOnUse">
   <stop stop-color="#6c5d53" offset="0"/>
   <stop stop-opacity="0" offset="1"/>
  </linearGradient>
  <linearGradient id="q" x1="869.47" x2="1079.3" y1="258.25" y2="529.8" gradientUnits="userSpaceOnUse">
   <stop stop-color="#6c5d53" offset="0"/>
   <stop stop-color="#483e37" stop-opacity="0" offset="1"/>
  </linearGradient>
  <linearGradient id="p" x1="325.93" x2="355.36" y1="470.71" y2="692.64" gradientUnits="userSpaceOnUse">
   <stop stop-color="#6c5d53" offset="0"/>
   <stop stop-color="#6c5d53" stop-opacity="0" offset="1"/>
  </linearGradient>
  <linearGradient id="n" x1="875.46" x2="906.95" gradientUnits="userSpaceOnUse">
   <stop stop-color="#241c1c" offset="0"/>
   <stop stop-color="#803300" offset="1"/>
  </linearGradient>
  <linearGradient id="i" x1="967.76" x2="1078.8" y1="386.83" y2="466.63" gradientUnits="userSpaceOnUse">
   <stop offset="0"/>
   <stop stop-color="#ff2a2a" offset="1"/>
  </linearGradient>
  <linearGradient id="al" x1="825" x2="861.5" gradientUnits="userSpaceOnUse" xlink:href="#b"/>
  <linearGradient id="ak" x1="813.14" x2="886.68" gradientUnits="userSpaceOnUse" xlink:href="#b"/>
  <linearGradient id="ai" x1="860.11" x2="930.79" gradientUnits="userSpaceOnUse" xlink:href="#b"/>
  <linearGradient id="ah" x1="887.07" x2="947.39" gradientUnits="userSpaceOnUse" xlink:href="#b"/>
  <linearGradient id="ag" x1="146.45" x2="159.07" y1="464.05" y2="418.59" gradientUnits="userSpaceOnUse" xlink:href="#a"/>
  <linearGradient id="af" x1="443.97" x2="456.59" y1="446.88" y2="401.42" gradientUnits="userSpaceOnUse" xlink:href="#a"/>
  <linearGradient id="f" x1="477.81" x2="490.43" y1="428.7" y2="383.24" gradientUnits="userSpaceOnUse" xlink:href="#a"/>
  <linearGradient id="ae" x1="507.61" x2="520.23" y1="408.49" y2="363.04" gradientUnits="userSpaceOnUse" xlink:href="#a"/>
  <linearGradient id="ad" x1="541.96" x2="554.57" y1="385.76" y2="340.31" gradientUnits="userSpaceOnUse" xlink:href="#a"/>
  <linearGradient id="ac" x1="574.28" x2="586.9" y1="364.55" y2="319.09" gradientUnits="userSpaceOnUse" xlink:href="#a"/>
  <linearGradient id="ab" x1="603.58" x2="616.19" y1="345.36" y2="299.9" gradientUnits="userSpaceOnUse" xlink:href="#a"/>
  <linearGradient id="aa" x1="634.39" x2="647" y1="321.11" y2="275.66" gradientUnits="userSpaceOnUse" xlink:href="#a"/>
  <linearGradient id="z" x1="664.19" x2="676.8" y1="300.41" y2="254.95" gradientUnits="userSpaceOnUse" xlink:href="#a"/>
  <linearGradient id="y" x1="687.42" x2="700.04" y1="276.67" y2="231.21" gradientUnits="userSpaceOnUse" xlink:href="#a"/>
  <linearGradient id="x" x1="721" x2="733.62" y1="252.6" y2="207.14" gradientUnits="userSpaceOnUse" xlink:href="#a"/>
  <linearGradient id="w" x1="746.51" x2="759.13" y1="219.59" y2="174.14" gradientUnits="userSpaceOnUse" xlink:href="#a"/>
  <linearGradient id="v" x1="772.27" x2="784.89" y1="190.81" y2="145.35" gradientUnits="userSpaceOnUse" xlink:href="#a"/>
  <linearGradient id="u" x1="799.55" x2="812.16" y1="155.95" y2="110.5" gradientUnits="userSpaceOnUse" xlink:href="#a"/>
  <linearGradient id="t" x1="825.81" x2="838.43" y1="132.72" y2="87.264" gradientUnits="userSpaceOnUse" xlink:href="#a"/>
  <linearGradient id="s" x1="844.75" x2="846.51" y1="115.04" y2="82.719" gradientUnits="userSpaceOnUse" xlink:href="#a"/>
  <linearGradient id="o" x1="897.78" x2="937.21" y1="717.68" y2="705.71" gradientUnits="userSpaceOnUse" xlink:href="#e"/>
  <linearGradient id="m" x1="888.13" x2="930.07" y1="719.29" y2="705" gradientUnits="userSpaceOnUse" xlink:href="#e"/>
  <linearGradient id="l" x1="978.92" x2="999.28" y1="741.97" y2="741.79" gradientUnits="userSpaceOnUse" xlink:href="#c"/>
  <linearGradient id="k" x1="996.06" x2="1008.2" y1="743.22" y2="741.61" gradientUnits="userSpaceOnUse" xlink:href="#c"/>
  <linearGradient id="j" x1="1004.1" x2="1018.7" y1="743.04" y2="741.43" gradientUnits="userSpaceOnUse" xlink:href="#c"/>
  <radialGradient id="h" cx="858.57" cy="850" r="15.857" gradientUnits="userSpaceOnUse">
   <stop stop-color="#fc0" offset="0"/>
   <stop stop-color="#2b2200" offset="1"/>
  </radialGradient>
 </defs>
 <g transform="translate(-268.23 99.995)">
  <path transform="translate(268.23 .00502)" d="m1085.8 478.52c-50.272 1.0374-91.95-10.397-143.29-16.941l5.0508-109.1 138.24 126.04z" fill="url(#i)" stroke="#000" stroke-width="6"/>
  <path d="m540.89 833.79c-29.349 27.788-68.204 30.388-105.36 37.491 105.35 62.049 197.9 135.19 280.7 216.79 228.41-45.359 531.85-83.876 762.28-79.872-23.519-55.267-126.52-107.34-172.42-147.52l-640.91-90.811-124.29 63.915" fill="url(#aq)" stroke="#000"/>
  <path d="m567.86 842.36c-27.259 24.353-63.347 26.632-97.857 32.857 97.848 54.38 183.81 118.48 260.71 190 212.14-39.753 473.03-83.611 687.06-80.101-21.845-48.437-96.57-83.975-139.2-119.18l-710.71-23.571" fill="url(#ao)" stroke="#000"/>
  <path d="m758.57 951.65 524.29-41.429c-18.774-177.17-67.142-334.86-36.898-522.53l-290.25-252.47-290.25 319.61c44.625 166.39 70.595 322.81 92.388 496.82" fill="url(#d)" stroke="#000" stroke-width="5"/>
  <path d="m758.57 951.65 524.29-41.429c-18.774-177.17-81.284-328.8-51.04-516.47-87.503-53.862-178.17-128.26-271.05-217.11-76.839 108.6-164.99 205.89-274.08 282.24 44.625 166.39 49.382 318.77 71.175 492.78" fill="url(#d)" filter="url(#g)" opacity=".4674" stroke="#000" stroke-width="5"/>
  <path d="m758.57 951.65 524.29-41.429c-18.774-177.17-97.446-320.72-67.202-508.39-87.503-53.862-160.99-120.18-253.88-209.03-76.839 108.6-144.78 203.87-253.88 280.22 44.625 166.39 28.169 304.63 49.962 478.63" fill="url(#d)" filter="url(#g)" opacity=".4674" stroke="#fff" stroke-width="5"/>
  <path d="m819.89 943.79 172.11-15.897c-26.675-95.285-31.39-193.07-34.075-284.1-65.785 23.322-136.95 33.128-202.74 30.746 26.786 71.943 56.301 188.52 63.228 269.25" fill="#333" opacity=".5939"/>
  <path d="m817.94 943.79 159.78-14.114c-25.836-92.95-26.252-181.37-28.852-270.17-63.716 22.75-127.43 20.013-191.15 17.69 25.944 70.18 52.085 187.84 58.794 266.6" fill="#333" stroke="#000" stroke-width="6"/>
  <path d="m1001.4 653.79c42.7 10.326 93.534-9.675 132.86-12.857-3.5016 54.728 5.7895 104.59 20 162.86-35.055-5.9696-102.57-0.6662-141.43 8.5714 9.9809-52.857-3.5145-105.71-11.428-158.57" fill="#4d4d4d" stroke="#000" stroke-width="6"/>
  <path d="m1015.7 667.35c34.719 8.4035 76.051-7.874 108.02-10.464-2.8471 44.541 4.7074 85.118 16.262 132.54-28.503-4.8583-83.399-0.54219-114.99 6.9758 8.1153-43.018-2.8576-86.035-9.2924-129.05" fill="#4d4d4d" stroke="#000" stroke-width="6"/>
  <path d="m1022.9 674.13c30.981 6.0535 66.93-8.615 95.229-10.909-2.5198 39.447 4.1663 77.403 14.392 119.4-25.1-1.6511-72.172 1.035-100.51 6.6831 5.1622-39.108-3.413-77.08-9.1081-115.18" fill="#00f" stroke="#000" stroke-width="6"/>
  <path d="m1068.6 676.65c1.9818 34.286 4.4348 66.172 17.688 100.46" fill="none" stroke="#fff" stroke-width="6"/>
  <path d="m1063.6 676.28c16.65-1.9015 33.11-7.0998 51.118-9.3934-1.6035 39.447 4.5453 73.11 14.588 112.58-18.452-1.146-47.856-0.35392-64.892 1.5061 4.5707-38.098 3.0623-66.095-0.5618-104.19" fill="url(#av)"/>
  <path d="m1035.8 737.11c34.286-1.9818 47.232 0.23714 81.518-13.016" fill="none" stroke="#fff" stroke-width="6"/>
  <path d="m828.57 940.93 120.07-13.03c-20.468-82.57-17.261-150.51-19.322-229.39-50.476 20.21-92.871 15.252-143.35 13.189 20.553 62.343 40.818 157.25 46.133 227.21" fill="url(#ap)" stroke="#873515" stroke-width="6"/>
  <path d="m661.56 440.9-129.3-50.508c24.46 164.83 45.589 332.94 36.366 492.95 69.363 8.7571 129.13 36.701 187.89 66.67-13.558-172.72-49.175-341.77-94.954-509.12" fill="url(#at)" stroke="#000" stroke-width="6"/>
  <path transform="translate(268.23 .00502)" d="m397.14 462.86-126.43-7.8571 21.429 155.71c44.28 15.009 92.184 23.979 147.86 20l-42.857-167.86" fill="url(#p)"/>
  <path d="m959.56 150.99c-91.351 111.47-190.89 210.66-292.94 306.08l18.183 72.731c104.42-89.579 210.02-177.1 304.06-284.86 84.179 83.506 163.31 158.59 247.49 223.24l10.102-78.792-286.88-238.4" fill="url(#q)" opacity=".6207"/>
  <path d="m583.06 537.47c125.2-122.17 257.15-241.09 377.5-387.49 118.52 119.88 269.54 225.26 398 325.27-1.5602-34.559 16.812-74.439 33.335-90.914-158.93-75.219-281.3-189.34-424.07-328.96-130.37 169.49-266.24 282.99-411.33 427.96-6.8596 20.757 8.0238 37.021 26.56 54.14z" fill="#a00" stroke="#000" stroke-width="6"/>
  <path d="m960.57 57.045c-73.4 17.67-145.72 33.456-197.99 14.142-126.86 144.41-279.54 242.58-438.28 339.17 6.6931 2.6469 1.0628 4.9638 42.7 25.536 30.016 14.83 154.49 47.542 189.51 47.44 187.21-138.34 293.22-282.79 408.35-426.28" fill="#f00" stroke="#000" stroke-width="6"/>
  <path d="m554.48 483.33c-4.041 13.974 3.2172 34.686 20.708 54.043-83.506-13.148-165.5-33.696-249-68.185 5.6817-18.183 1.2933-35.355-3.5355-53.538 75.374 33.252 151.13 61.078 231.83 67.68" fill="#a00" stroke="#000" stroke-width="6"/>
  <path d="m1042.3 413.21c0 45.04-20.229 81.553-54.321 81.553s-66.667-36.512-66.667-81.553 27.637-82.726 61.729-82.726 59.26 37.686 59.26 82.726z" fill="#502d16" fill-rule="evenodd" stroke="#000" stroke-width="6"/>
  <path d="m1031.3 413.12c0 38.773-16.552 70.206-44.447 70.206s-54.548-31.432-54.548-70.206 22.613-71.216 50.508-71.216 48.487 32.442 48.487 71.216z" fill="#f00" fill-rule="evenodd" stroke="#000" stroke-width="6"/>
  <path d="m1014.1 413.12c0 38.773-13.681 70.206-36.737 70.206s-45.086-31.432-45.086-70.206 18.69-71.216 41.746-71.216 40.076 32.442 40.076 71.216z" fill="url(#au)" fill-rule="evenodd" stroke="#000" stroke-width="6"/>
  <path d="m1031.3 413.12c0 38.773-16.552 70.206-44.447 70.206s-54.548-31.432-54.548-70.206 22.613-71.216 50.508-71.216 48.487 32.442 48.487 71.216z" fill="#fff" fill-rule="evenodd" opacity=".5479" stroke="#000" stroke-width="6"/>
  <path d="m935.37 415.18c33.095 1.6451 59.048 0.23343 92.5-4.6429" fill="none" stroke="#fff" stroke-width="3"/>
  <path d="m1282.9 908.79-7.8572-62.857-23.571-2.8571-20 10.714 15 57.857-10 0.71428-12.857-47.857-19.286-8.5714-13.571 2.8571-17.857 5-1.4286 32.143 10 20-12.143 1.4286-10.714-23.571 4.2857-37.857-17.143-5.7143-20 3.5714-4.9999 24.286-1.4286 25.714 16.428 15.714-20 2.1428-9.2857-16.429 2.8571-28.571 5-29.286-30.714-0.71428-10.714 19.286-7.8572 43.571v15.714l-12.143 1e-5 -1.4286-13.571 7.8571-42.143h-29.286l-3.5714 11.429-6.4286 28.571 7.8571 17.143v2.1429h-9.2857l-12.857-20.714 10-37.143-27.857-8.5714-20 9.2857c2.8101 20.714 3.5757 41.429 13.571 62.143l301.43-25" fill="url(#as)" stroke="#000" stroke-width="6"/>
  <path d="m813.57 945.22-9.2857-67.143-17.857-2.8572-7.8571 16.429h-25.714l7.1429 57.857 53.571-4.2857" fill="#483e37" stroke="#000" stroke-width="6"/>
  <path d="m568.93 883.61 1.6072-35 9.7369 2.145 4.7274 3.7479 3.6675-3.9113 7.7611-4.6601 6.4286 7.8571-3.5714 20-5 10.714 7.8572 2.6786 5.7143-13.393 4.2857-18.214 3.7379-3.4761 9.8335-3.3096 7.8572 4.2857-2.3214 21.964 1.9643 23.214 9.1071 2.5-1.7857-23.75 1.6072-21.071 10.524 0.3338 8.7618 5.3805 1.4286 5.7143v18.571l-5.7143 11.429-1.4286 9.2857 8.2143 3.2143 1.25-9.8214 6.9643-14.821-0.53572-17.5 18.393-12.5 20 4.2857-0.71429 26.429-10.714 10.714-1.4286 25 11.071 4.2857 0.89286-24.286 11.786-13.571 0.53571-26.429 13.571-1.4286 12.143 7.1429 8.5714 82.143c-61.728-27.728-122.08-49.584-185.71-65.893" fill="url(#ar)" stroke="#000" stroke-width="6"/>
  <path d="m764.29 69.505c1.0595-12.933 11.4-24.284 27.857 5.7143 12.951-22.875 28.53-17.27 35 3.5714 8.1454-8.0649 13.47-28.67 28.571-3.5714 1.8065 3.0023 14.165-38.643 27.857-2.8571 8.8653-17.728 10.377-32.46 27.857-6.4286 1.3223 1.9692 21.675-45.257 32.143-7.8571 19.237-29.474 29.76-36.828 24.286-3.5714-70.008 28.972-134.2 40.458-202.14 15.714" fill="#501616" stroke="#000" stroke-width="6"/>
  <path d="m586.43 515.02c122.35-130.03 256.64-246.49 377-392.89 118.52 119.88 252.4 223.12 380.86 323.13 4.8684-27.416 11.812-37.296 28.335-53.771-163.79-68.28-268.87-164.66-403.36-316.11-130.37 169.49-264.81 312.99-400.61 417.24 4.7572 8.13 1.2634 5.787 17.779 22.401z" fill="#501616" stroke="#000" stroke-width="6"/>
  <path d="m538.77 493.69c-0.46957 8.2594 0.99388 16.381 10.985 29.309-84.577-17.791-128.42-28.472-209.42-61.175 1.396-6.397 0.76285-17.244-2.9946-28.284 75.374 33.252 120.93 51.088 201.99 60.905" fill="#501616" stroke="#000" stroke-width="6"/>
  <path d="m828.57 940.93 127.14-10c-20.468-82.57-20.797-161.11-22.857-240-50.476 20.21-100.95 17.778-151.43 15.714 20.553 62.343 41.828 164.32 47.143 234.29" fill="#520" stroke="#000" stroke-width="6"/>
  <path d="m790 713.79 23.571 1.4286c22.901 74.818 32.125 146.9 46.429 220l-24.286 2.8571c-10.345-75.493-20.81-150.61-45.714-224.29" fill="none" stroke="url(#al)" stroke-width="3"/>
  <path d="m814.64 715.22 24.643 0.71429c22.901 74.818 31.589 144.4 45.893 217.5l-23.571 1.7857c-13.203-75.493-26.346-136.15-46.25-219.11" fill="none" stroke="url(#ak)" stroke-width="3"/>
  <path d="m840 715.93 21.071-0.71429c22.901 74.818 31.768 142.08 46.071 215.18l-21.786 3.0357c-10.345-75.493-25.453-136.68-45.357-217.5" fill="none" stroke="url(#aj)" stroke-width="3"/>
  <path d="m861.61 715.22 24.464-1.6072c22.901 74.818 28.911 140.65 43.214 213.75l-20.714 3.0357c-13.203-75.493-27.417-137.4-45.893-214.64" fill="none" stroke="url(#ai)" stroke-width="3"/>
  <path d="m888.57 713.08c11.976-2.2847 23.79-4.2473 37.143-9.2857 0.75846 85.533 5.8748 148.51 20.179 221.61l-15.714 1.7857c-10.345-75.493-27.418-131.86-41.607-214.11" fill="none" stroke="url(#ah)" stroke-width="3"/>
  <path transform="translate(50 -41.924)" d="m827.14 831.43c0 4.3394-3.5178 7.8571-7.8571 7.8571s-7.8572-3.5178-7.8572-7.8571 3.5178-7.8571 7.8572-7.8571 7.8571 3.5178 7.8571 7.8571z" fill-rule="evenodd" stroke="#000"/>
  <path transform="translate(54.286 -31.924)" d="m871.43 850c0 7.1008-5.7563 12.857-12.857 12.857s-12.857-5.7563-12.857-12.857 5.7563-12.857 12.857-12.857 12.857 5.7563 12.857 12.857z" fill="url(#h)" fill-rule="evenodd" stroke="#000" stroke-width="6"/>
  <path transform="translate(268.23 .00502)" d="m54.548 409.56c-6.2224 22.257 25.494 20.388 28.284 16.668-0.39749 0.39749 1.9783 23.016 31.82 11.617 2.7389 7.6191 5.9238 23.868 30.81 12.122-6.0867 6.4146 14.078 26.633 28.789 9.5964 0.66236 13.362 13.661 18.109 25.128 6.6922-1.5944 12.93 13.465 21.762 28.411 7.4499 6.926 25.531 31.315 8.0812 31.315 8.0812s8.0012 27.82 29.8 2.5254l22.223-19.698-231.83-69.195-24.749 14.142" fill="url(#ag)" stroke="#000" stroke-width="6"/>
  <path d="m352.07 392.39c-6.2224 22.257 25.494 20.388 28.284 16.668-0.39749 0.39749 1.9783 23.016 31.82 11.617 2.7389 7.6191 5.9238 23.868 30.81 12.122-6.0867 6.4146 14.078 26.633 28.789 9.5964 0.66236 13.362 13.661 18.109 25.128 6.6922-1.5944 12.93 13.465 21.762 28.411 7.4499 6.926 25.531 26.264 6.566 26.264 6.566s-0.08 30.345 25.254 6.0609l26.769-23.739-226.78-67.175-24.749 14.142" fill="url(#af)" stroke="#000" stroke-width="6"/>
  <path d="m385.91 374.21c-6.2224 22.257 25.494 20.388 28.284 16.668-0.39749 0.39749 1.9783 23.016 31.82 11.617 2.7389 7.6191 1.3782 18.818 26.264 7.0711-3.0563 6.9197 18.623 31.684 33.335 14.647 1.6725 16.897 13.661 18.109 25.128 6.6922-1.5944 12.93 18.011 24.287 32.956 9.9753 6.926 25.531 29.294 14.142 29.294 14.142l37.376-29.8-219.71-65.155-24.749 14.142" fill="url(#f)" stroke="#000" stroke-width="6"/>
  <path d="m385.91 374.21c-6.2224 22.257 25.494 20.388 28.284 16.668-0.39749 0.39749 1.9783 23.016 31.82 11.617 2.7389 7.6191 1.3782 18.818 26.264 7.0711-3.0563 6.9197 18.623 31.684 33.335 14.647 1.6725 16.897 13.661 18.109 25.128 6.6922-1.5944 12.93 18.011 24.287 32.956 9.9753 6.926 25.531 29.294 14.142 29.294 14.142l37.376-29.8-219.71-65.155-24.749 14.142" fill="url(#f)" stroke="#000" stroke-width="6"/>
  <path d="m415.71 354.01c-6.2224 22.257 25.494 20.388 28.284 16.668-0.39749 0.39749 1.9783 23.016 31.82 11.617 2.7389 7.6191 5.9238 23.868 30.81 12.122-6.0867 6.4146 14.078 26.633 28.789 9.5964 0.66236 13.362 13.661 18.109 25.128 6.6922-1.5944 12.93 18.011 24.287 32.956 9.9753 6.926 25.531 26.769 12.122 26.769 12.122l37.376-32.325-208.09-67.175-33.84 20.708" fill="url(#ae)" stroke="#000" stroke-width="6"/>
  <path d="m450.05 331.28c-6.2224 22.257 25.494 20.388 28.284 16.668-0.39749 0.39749 7.0291 23.521 36.871 12.122 2.7389 7.6191 0.87309 23.363 25.759 11.617-6.0867 6.4146 14.078 26.633 28.789 9.5964 0.66236 13.362 13.661 18.109 25.128 6.6922-1.5944 12.93 18.011 24.287 32.956 9.9753 6.926 25.531 21.213 11.112 21.213 11.112l38.386-35.86-203.04-64.145-34.345 22.223" fill="url(#ad)" stroke="#000" stroke-width="6"/>
  <path d="m482.38 310.07c-6.2224 22.257 25.494 20.388 28.284 16.668-0.39749 0.39749-1.0522 19.481 28.789 8.0812 2.7389 7.6191 8.9543 27.404 33.84 15.657-6.0867 6.4146 17.613 26.633 32.325 9.5964 0.66236 13.362 17.701 25.18 29.168 13.763-1.5944 12.93 22.052 27.823 36.997 13.511l43.437-39.901-198.49-59.599-34.345 22.223" fill="url(#ac)" stroke="#000" stroke-width="6"/>
  <path d="m511.67 290.87c-6.2224 22.257 25.494 20.388 28.284 16.668-0.39749 0.39749 1.9783 23.016 31.82 11.617 2.7389 7.6191 5.9238 23.868 30.81 12.122-6.0867 6.4146 17.613 26.633 32.325 9.5964 0.66236 13.362 17.701 25.18 29.168 13.763-1.5944 12.93 18.516 24.792 33.461 10.48l40.911-40.406-192.43-56.063-34.345 22.223" fill="url(#ab)" stroke="#000" stroke-width="6"/>
  <path d="m542.48 266.63c-6.2224 22.257 25.494 20.388 28.284 16.668-0.39749 0.39749 1.9783 23.016 31.82 11.617 2.7389 7.6191 5.9238 23.868 30.81 12.122-6.0867 6.4146 17.613 26.633 32.325 9.5964 0.66236 13.362 17.701 25.18 29.168 13.763-1.5944 12.93 13.971 22.772 28.916 8.46l41.921-43.437-188.9-51.013-34.345 22.223" fill="url(#aa)" stroke="#000" stroke-width="6"/>
  <path d="m572.28 245.92c-6.2224 22.257 25.494 20.388 28.284 16.668-0.39749 0.39749-1.0522 19.986 28.789 8.5863 2.7389 7.6191 5.4188 23.868 30.305 12.122-6.0867 17.021 18.623 27.139 33.335 10.102 0.66236 13.362 13.661 22.655 25.128 11.238-1.5944 12.93 14.981 23.277 29.926 8.9651l43.437-44.952-184.86-44.952-34.345 22.223" fill="url(#z)" stroke="#000" stroke-width="6"/>
  <path d="m598.55 226.73c-6.2224 22.257 22.463 15.842 25.254 12.122-0.39749 0.39749-1.0522 19.986 28.789 8.5863 2.7389 7.6191 5.4188 23.868 30.305 12.122-6.0867 17.021 18.623 27.139 33.335 10.102 0.66236 13.362 13.661 22.655 25.128 11.238-1.5944 12.93 14.981 23.277 29.926 8.9651l41.416-46.972-180.82-40.911-33.84 24.244" fill="url(#y)" stroke="#000" stroke-width="6"/>
  <path d="m632.13 202.66c-6.2224 22.257 22.463 15.842 25.254 12.122-0.39749 0.39749-1.0522 19.986 28.789 8.5863 2.7389 7.6191 5.4188 23.868 30.305 12.122-6.0867 17.021 12.057 28.654 26.769 11.617 0.66236 13.362 14.671 21.645 26.138 10.228-1.5944 12.93 13.465 19.236 28.411 4.9245l40.911-47.982-173.24-36.365-33.84 24.244" fill="url(#x)" stroke="#000" stroke-width="6"/>
  <path d="m657.64 169.65c-6.2224 22.257 22.463 15.842 25.254 12.122-0.39749 0.39749-4.0826 19.986 25.759 8.5863 1.2475 7.6191 0.1503 23.868 33.335 12.122-6.0867 17.021 16.603 27.644 31.315 10.607-10.341 13.362 6.7947 22.655 21.592 11.238-3.8046 17.351 11.643 22.882 28.411 4.9245l40.911-47.982-173.24-36.365-33.84 24.244" fill="url(#w)" stroke="#000" stroke-width="6"/>
  <path d="m683.4 140.87c-6.2224 22.257 22.463 15.842 25.254 12.122-0.39749 0.39749-4.0826 19.986 25.759 8.5863 1.2475 7.6191 0.1503 23.868 33.335 12.122-6.0867 17.021 16.603 27.644 31.315 10.607 0.66236 13.362 10.125 22.655 21.592 11.238-3.8046 17.351 15.178 18.841 31.946 0.88387l37.376-45.962-178.8-28.789-28.284 18.688" fill="url(#v)" stroke="#000" stroke-width="6"/>
  <path d="m708.65 118.14c-6.2224 22.257 18.928 13.317 21.718 9.5964-0.39749 0.39749-1.0522 20.491 28.789 9.0914 1.2475 7.6191-2.3751 16.797 30.81 5.0508-0.0258 17.526 21.654 24.613 36.365 7.5762-2.0896 14.462 1.0804 28.495 27.148 11.238-3.8046 17.351 9.6226 18.841 26.39 0.88387l37.376-45.962-181.32-18.183-26.264 19.698" fill="url(#u)" stroke="#000" stroke-width="6"/>
  <path d="m734.92 96.924c-6.2224 22.257 18.928 11.297 21.718 7.5761-0.39749 0.39749-1.0522 20.491 28.789 9.0914 1.2475 7.6191-2.3751 16.797 30.81 5.0508-0.0258 17.526 18.118 29.159 32.83 12.122 0.66236 13.362 14.924 16.089 26.39 4.6719-3.8046 17.351 11.39 18.841 28.158 0.88387l60.104-78.792c-58.589 27.633-124.62 35.928-202.03 15.152l-23.739 23.234" fill="url(#t)" stroke="#000" stroke-width="6"/>
  <path d="m626.97 313.69c40.854-21.924 80.721-46.314 114.05-87.038-14.223-60.918-3.0842-126.91 0.2451-191.34l-125.71-3.3474c12.28 93.907 14.323 187.81 11.408 281.72z" fill="url(#am)" stroke="#000" stroke-width="6"/>
  <path d="m627.14 313.79c-20.866 3.1604-38.181-0.78106-51.429-12.857 4.4361-94.762-0.64898-189.52-11.429-284.29 13.061 11.247 25.815 23.007 50 15.714 15.327 91.049 11.84 186.8 12.857 281.43" fill="url(#an)" stroke="#000" stroke-width="6"/>
  <path d="m740.71 35.219c-15.205-3.2643-28.582-4.8486-34.286-15.714-43.873 10.329-86.47 7.3362-137.86-5 10.704 19.544 23.586 21.161 45.714 17.857 44.709 9.816 84.554 6.1761 125.71 3.5714" fill="#2b0000" stroke="#000" stroke-width="6"/>
  <path d="m754.87 79.751c-6.2224 22.257 17.918 10.792 20.708 7.0711-0.39749 0.39749-2.0623 18.471 27.779 7.0711 3.0152 11.912 11.009 18.565 31.062 4.2932-0.0258 17.526 23.926 19.31 38.638 2.2728 0.66236 13.362 14.166 16.846 25.633 5.4296-3.8046 17.351 8.1074 21.619 24.875 3.6618l37.628-46.214c-58.589 27.633-120.83 30.372-198.24 9.5965l-8.0812 7.5761" fill="url(#s)" stroke="#000" stroke-width="6"/>
  <path transform="translate(268.23 .00502)" d="m732.86 816.43 20.714 90.714 192.14-11.429-54.286-93.571-158.57 14.286" fill="url(#r)"/>
  <path transform="translate(268.23 .00502)" d="m735 816.43c57.129-15.404 109.32-14.198 157.14-12.857 3.058 5.4092 6.2712 9.3382 15 12.857-51.885 1.0104-111.42 4.7783-161.43 11.429l-10.714-11.429" fill="#b3b3b3" stroke="#000" stroke-width="6"/>
  <path transform="translate(268.23 .00502)" d="m867.86 652.86c14.008 0.0599 30.227-4.0644 40.714-9.2857-5.5147 56.57 6.2451 77.232 30 148.57-17.619-4.7619-35.238-5.7143-52.857-2.8572-14.439-50.78-18.283-90.15-17.857-136.43z" fill="#520" stroke="#000" stroke-width="6"/>
  <path d="m1002.5 672.86c-14.008 0.0599-30.227 1.6499-40.714-3.5714 5.5148 56.57 31.612 65.804 7.8571 137.14 17.619-4.7619 24.524-10 42.143-7.1429 6.5823-56.494-1.7166-78.722-7.8572-125" fill="#520" stroke="#000" stroke-width="6"/>
  <path transform="translate(268.23 .00502)" d="m890.98 654.29c5.4368-1.0115 5.2269-0.67156 12.143-3.2143-5.5147 56.57 5.1737 63.661 28.929 135-7.0833-1.6369-5.6845-1.4286-9.0178-1.7857-14.439-50.78-32.48-83.722-32.054-130z" fill="none" stroke="url(#o)" stroke-width="3"/>
  <path transform="translate(268.23 .00502)" d="m882.05 656.25c3.1154-1.1901 0.58403-0.49302 7.1429-1.9643 2.3424 37.284 7.6737 58.661 31.429 130-7.0833-1.6369-11.756-0.35717-15.089-0.71431-14.439-50.78-23.908-81.043-23.482-127.32z" fill="none" stroke="url(#m)" stroke-width="3"/>
  <path transform="translate(268.23 .00502)" d="m872.41 656.43c2.5796-0.11867 5.2269 0.93555 7.5-0.35715 2.3424 37.284 1.7808 57.232 25.536 128.57-7.619-0.56548-13.185 0.89283-16.518 0.53569-14.439-50.78-16.944-82.472-16.518-128.75z" fill="none" stroke="url(#n)" stroke-width="3"/>
  <path transform="translate(268.23 .00502)" d="m854.29 677.14 25.714-2.1429" fill="none" stroke="#000" stroke-width="6"/>
  <path transform="translate(268.23 .00502)" d="m869.29 780 27.857-0.71429" fill="none" stroke="#000" stroke-width="6"/>
  <path d="m979.45 677.59c-4.5439-0.11867-5.2268-0.58226-12.679-1.875 6.4077 50.499 27.862 59.375 9.2857 124.29 5.1191-1.7262 11.131-4.2857 14.464-4.4643 6.5823-56.494-4.9309-71.668-11.071-117.95z" fill="none" stroke="url(#l)" stroke-width="3"/>
  <path d="m989.98 677.42c-4.5439-0.11867-1.4768 0.84631-8.9285-0.44642 5.1577 34.606 20.183 54.375 11.786 118.39 2.9762-1.1905 3.9881-0.7143 7.3215-0.89287 6.5823-56.494-4.0381-70.775-10.179-117.05z" fill="none" stroke="url(#k)" stroke-width="3"/>
  <path d="m1000.5 676.88c-4.5438-0.11867-0.9411 1.2034-8.3928-0.0893 5.1577 34.606 16.969 53.304 10.536 117.5 2.9763-1.1905 1.8453 1.4286 5.1787 1.25 6.5823-56.494-1.181-72.383-7.3216-118.66z" fill="none" stroke="url(#j)" stroke-width="3"/>
  <path d="m1000.6 788.09 25.22-5.4555" fill="none" stroke="#000" stroke-width="6"/>
  <path d="m994.9 695.95 25.22-5.4555" fill="none" stroke="#000" stroke-width="6"/>
  <path transform="translate(46.429 -60.495)" d="m840 828.57c0 11.046-8.9543 20-20 20s-20-8.9543-20-20 8.9543-20 20-20 20 8.9543 20 20z" fill="none" stroke="#000" stroke-width="6"/>
  <path transform="translate(268.23 .00502)" d="m895.71 722.86 17.143-4.2857" fill="none" stroke="#000" stroke-width="3"/>
  <path transform="translate(268.23 .00502)" d="m351.53-9.1475-1.0102 40.406" fill="none" stroke="#000" stroke-width="6"/>
  <path d="m576.32-15.203-1.0102 33.335" fill="none" stroke="#000" stroke-width="6"/>
  <path d="m705.62-21.264-1.0102 40.406" fill="none" stroke="#000" stroke-width="6"/>
  <path d="m731.89-9.1425-1.0102 40.406" fill="none" stroke="#000" stroke-width="6"/>
  <path transform="translate(268.23 .00502)" d="m274.76-22.279c77.435 15.133 131.12 12.061 189.91-10.102 2.1111 30.887 21.809 20.954 45.457 30.305-52.528 13.321-105.06 12.933-157.58 2.0203-28.811 10.023-51.546-0.32979-77.782-21.213" stroke="#000" stroke-width="6"/>
  <path transform="translate(268.23 -99.995)" d="m713.75 444.82c-2.3793 45.952-0.44103 89.405 4.8214 135.36" fill="none" stroke="#fff" stroke-width="3"/>
 </g>
</svg>
