<?xml version="1.0" encoding="UTF-8"?>
<svg viewBox="0 0 456.5257 618.60095" xmlns="http://www.w3.org/2000/svg" xmlns:xlink="http://www.w3.org/1999/xlink">
 <defs>
  <linearGradient id="a">
   <stop stop-color="#808080" offset="0"/>
   <stop stop-color="#808080" stop-opacity="0" offset="1"/>
  </linearGradient>
  <linearGradient id="d" x1="198.12" x2="244.94" y1="86.284" y2="315.78" gradientUnits="userSpaceOnUse">
   <stop stop-color="#333" offset="0"/>
   <stop stop-color="#333" stop-opacity="0" offset="1"/>
  </linearGradient>
  <linearGradient id="c" x1="460" x2="574.29" y1="580.93" y2="483.79" gradientUnits="userSpaceOnUse" xlink:href="#a"/>
  <linearGradient id="b" x1="93.747" x2="428.55" y1="477.89" y2="243.61" gradientUnits="userSpaceOnUse" xlink:href="#a"/>
 </defs>
 <g transform="translate(-101.18 -44.005)">
  <path d="m202.78 48.005c-46.712 0-84.587 27.76-84.587 62.02 0 15.917 8.1735 30.433 21.611 41.415-8.5466 9.0584-13.551 20.056-13.551 31.905 0 17.92 11.461 33.881 29.289 44.156-10.668 8.4333-17.212 19.718-17.212 32.129 0 26.103 28.86 47.27 64.451 47.27 17.452 0 33.27-5.1056 44.874-13.37 11.603 8.2589 27.403 13.37 44.849 13.37 35.59-8e-5 64.451-21.167 64.409-40.493s-6.5704-30.527-17.171-38.906c17.828-10.276 29.289-26.236 29.249-41.209s-5.0359-25.867-13.512-34.852c13.437-10.982 21.611-25.498 21.496-50.676s-37.922-52.759-84.472-52.759c-16.478 0-31.846 3.458-44.849 9.4354-13.01-5.9848-28.39-9.4354-44.874-9.4354z" fill="url(#d)" fill-rule="evenodd"/>
  <path d="m158.89 309.17c64.771 179.2-9.4125 242.88-53.153 348.88h290.82c-43.741-106-117.92-169.68-53.153-348.88h-184.52z" fill="url(#b)" stroke="#808080" stroke-width="1.1234"/>
  <path d="m353.7 658.61v-120c0-55.228 44.772-100 100-100s100 44.772 100 100v120h-200z" fill="url(#c)" fill-rule="evenodd"/>
  <path d="m419.32 484.84-3.7858 2.5573c-17.946 12.2-27.991 29.295-30.261 51.422l-0.57665 5.4155h48.263l0.52651-3.0086c0.70632-4.0311 3.6806-9.0675 7.1454-12.11l2.8331-2.4821-10.104-17.475c-5.5557-9.6119-11-19.003-12.085-20.885zm70.752 0.0249-3.1339 5.4155c-1.7277 2.9808-7.1776 12.372-12.085 20.885l-8.9004 15.494 2.808 2.4821c3.4584 3.0364 6.4396 8.0561 7.1454 12.085l0.5265 3.0086h48.263l-0.55157-5.0143c-2.4521-22.281-12.438-39.663-29.384-51.171zm-35.299 45.94c-2.0552-0.11528-5.9407 0.55672-8.7031 2.7645-4.0275 3.2187-5.8182 6.8989-5.815 11.869 3e-3 5.0203 2.5494 9.5044 6.8947 12.135 6.676 4.0411 16.147 1.7087 20.057-4.9642 3.7589-6.4141 2.1307-14.188-4.0365-19.18-2.6815-2.1703-5.6602-2.6241-8.3974-2.6241zm10.002 33.487s-1.5498 0.54155-3.134 1.2034c-3.7293 1.5582-11.978 1.7723-16.87-1.4087-3.8705 6.2801-7.7582 12.672-11.386 18.984-4.8776 8.4294-9.8444 17.017-11.057 19.08l-2.2063 3.7356 5.0394 2.4069c4.6247 2.1882 13.273 5.4305 18.302 6.0172 3.1781 0.37074 8.4436 0.52976 13.392 0.38101 5.6966-0.17129 17.747-1.8313 27.751-6.5988l4.6383-2.2063-1.5294-2.5573c-0.84273-1.3961-4.3326-7.4061-7.7471-13.363-9.0495-15.788-15.193-25.673-15.193-25.673z"/>
 </g>
</svg>
