<?xml version='1.0' encoding='utf-8'?>
<svg xmlns="http://www.w3.org/2000/svg" version="1.1" id="Layer_1" x="0px" y="0px" width="400px" height="400px" viewBox="0 0 400 400" enable-background="new 0 0 400 400"> <g> <rect x="85.5" y="324.5" fill="#808080" stroke="#808080" stroke-width="5" stroke-miterlimit="10" width="241" height="55"/> <rect x="85.5" y="132.5" fill="#808080" stroke="#808080" stroke-width="5" stroke-miterlimit="10" width="241" height="184"/> <path fill="#333333" d="M122,175h168v107.646c0,0-2.492,8.237-84,8.237c-81.509,0-84-8.237-84-8.237V175z"/> <path fill="#FFFFFF" d="M133,196h146v69.877c0,0-12.852,8.749-73,8.749c-60.146,0-73-8.749-73-8.749V196z"/> <path fill="#333333" d="M207.787,160.213c-56.535,0-107.606-3.151-108.115-3.184c-3.583-0.224-6.306-3.31-6.082-6.893 c0.224-3.584,3.325-6.322,6.893-6.082c0.505,0.031,51.191,3.158,107.304,3.158c56.125,0,104.898-3.126,105.384-3.157 c3.583-0.244,6.675,2.483,6.908,6.065c0.233,3.582-2.483,6.675-6.065,6.907C313.524,157.061,264.329,160.213,207.787,160.213z"/> <polygon fill="#272733" points="329.078,128 84.178,128 101.773,77 312.91,77 "/> <path fill="#272733" d="M315,69.244c0,2.627-2.129,4.756-4.755,4.756H107.755c-2.626,0-4.755-2.129-4.755-4.756V35.756 c0-2.627,2.129-4.756,4.755-4.756h202.489c2.626,0,4.755,2.129,4.755,4.756V69.244z"/> <path fill="#FF7BAC" d="M248,63c0,1.104-0.896,2-2,2h-73c-1.104,0-2-0.896-2-2V43c0-1.104,0.896-2,2-2h73c1.104,0,2,0.896,2,2V63z"/> <g> <path fill="#FF1D25" d="M148.644,103.197c-3.764,0-36.773,0.281-36.773,10.069c0,9.79,33.01,10.074,36.773,10.074 c3.764,0,36.776-0.284,36.776-10.074C185.419,103.479,152.408,103.197,148.644,103.197z"/> <path fill="#FF1D25" d="M263.984,103.197c-3.764,0-36.773,0.281-36.773,10.069c0,9.79,33.01,10.074,36.773,10.074 c3.764,0,36.776-0.284,36.776-10.074C300.76,103.479,267.749,103.197,263.984,103.197z"/> <path fill="#FF1D25" d="M150.644,96.046c2.596,0,25.363-0.194,25.363-6.95c0-6.75-22.767-6.945-25.363-6.945 c-2.596,0-25.361,0.195-25.361,6.945C125.283,95.852,148.048,96.046,150.644,96.046z"/> <path fill="#FF1D25" d="M260.984,96.046c2.596,0,25.363-0.194,25.363-6.95c0-6.75-22.767-6.945-25.363-6.945 c-2.596,0-25.361,0.195-25.361,6.945C235.623,95.852,258.389,96.046,260.984,96.046z"/> </g> <circle fill="#FFFFFF" cx="126.168" cy="53.65" r="6.994"/> <circle fill="#FFFFFF" cx="149.791" cy="53.65" r="6.994"/> <circle fill="#FFFFFF" cx="269.53" cy="53.65" r="6.994"/> <circle fill="#FFFFFF" cx="293.153" cy="53.65" r="6.994"/> </g> </svg>